<?xml version="1.0" encoding="utf-8"?>
<!-- Generator: Adobe Illustrator 23.0.0, SVG Export Plug-In . SVG Version: 6.00 Build 0)  -->
<svg version="1.1" id="Capa_1" xmlns="http://www.w3.org/2000/svg" xmlns:xlink="http://www.w3.org/1999/xlink" x="0px" y="0px"
	 viewBox="0 0 800 800" style="enable-background:new 0 0 800 800;" xml:space="preserve">
<style type="text/css">
	.st0{fill:#FFFFFF;}
</style>
<g>
	<g>
		<path class="st0" d="M550.1,377c-26.9,0-48.9,21.7-49,48.4c-0.1,26.6,21.9,48.8,48.6,48.8c26.7,0.1,48.7-21.9,48.7-48.6
			C598.4,398.8,576.7,377,550.1,377z M550.1,450.3c-13.8,0-24.9-10.9-24.9-24.4c0-14,10.8-24.9,24.7-24.9
			c13.6,0,24.8,11.1,24.7,24.7C574.4,439.3,563.5,450.3,550.1,450.3z"/>
		<path class="st0" d="M249.7,307c-64.7-0.6-121,53.4-119.9,122.1c1.1,64.1,53.9,118.4,121.2,117.9c65.9-0.6,118.8-54.4,118.9-119.5
			C370.1,360.6,316.5,307,249.7,307z M251.6,500.1c-43.3,2-78.3-32.5-78.2-74.5c0.1-42.5,35.1-75,74.7-74.3
			c41.1,0,74.5,33.1,74.4,74.2C322.4,467.1,289.6,498.3,251.6,500.1z"/>
		<path class="st0" d="M400,0C179.1,0,0,179.1,0,400s179.1,400,400,400s400-179.1,400-400S620.9,0,400,0z M629.9,555.3
			c-24.4,15.5-51.4,22.9-80.3,23c-12.1,0.1-24.2-1.5-36-4.6c-28.8-7.5-53.6-21.9-73.9-43.6c-2.7-2.9-5.2-5.8-8.1-9.1
			c-10.8,16-21.4,31.9-32.2,48c-10.8-16.2-21.3-31.8-31.7-47.4c-0.7,0.4-0.9,0.4-1.1,0.5c-0.2,0.2-0.5,0.5-0.6,0.7
			c-24.7,29.1-55.7,46.9-93.4,52.9c-21,3.3-41.8,2.1-62.2-3.5c-28.9-7.9-53.5-23.2-73.4-45.7c-19.4-22-31.5-47.6-36-76.6
			c-5.2-27.1,1.1-53.3,2.7-59.6c4.6-18.4,12.5-35.4,23.5-50.9c0.8-1.1,1-3.1,0.7-4.4c-4.5-16.4-12.1-31.2-21.1-45.5
			c-2.3-3.6-5-7-7.5-10.4c0-0.4,0-0.8,0-1.2c0.5,0.1,1,0.2,1.5,0.2c30.3,0,60.5,0,90.8,0c1.3,0,2.8-0.5,3.9-1.3
			c21.3-13.7,43.9-24.5,67.7-32.9c17.2-6.1,34.7-10.8,52.6-14.3c17.3-3.3,34.7-5.7,52.3-6.9c42.9-3.3,77.1,1.2,99.9,4.4
			c16.8,2.4,33.3,6.6,49.5,11.6c28.4,8.7,55.2,20.9,80.4,36.6c1.7,1.1,4.1,1.8,6.2,1.8c29.6,0.1,59.1,0.1,88.7,0.1
			c2.4,0,4.8,0.3,7.1,0.4c0,0.6,0.1,0.8,0,1c-1.4,2.1-2.8,4.2-4.2,6.3c-10,15.4-18.6,31.5-23.7,49.3c-0.5,1.9-0.7,3.5,0.6,5.4
			c26.3,37.8,34.7,79.3,23.7,124.1C686.6,503,664.1,533.6,629.9,555.3z"/>
		<path class="st0" d="M247.5,377c-26.3,0-48.3,22.2-48.2,48.6c0.1,26.7,22.1,48.6,48.8,48.7c26.6,0.1,48.6-22.1,48.5-48.8
			C296.5,398.5,274.7,377,247.5,377z M248.1,450.5c-14.1,0-25-10.9-25-25.1c0-13.9,10.9-24.7,24.9-24.7c13.8,0,25,11,25,24.8
			C273.1,439.3,261.8,450.5,248.1,450.5z"/>
		<path class="st0" d="M547.5,307.5c-65.6,1.3-117,54.2-117.6,119.7c0,66.5,53.9,120.8,120.2,120.5c66.5-0.2,120.2-53,120.1-120.2
			C670.2,358.2,614,306.1,547.5,307.5z M552.9,500.1c-43.1,1.7-77.7-32.7-77.6-74.4c0-42.2,34.8-75,74.6-74.3
			c41.1-0.1,74.5,33.1,74.5,74.2C624.3,466.7,591.6,498.6,552.9,500.1z"/>
		<path class="st0" d="M447.9,316.2c26.6-24.4,58.2-37.2,94.2-39.9c-42.6-18.9-87.6-27-133.9-27.9c-52.6-1-103.7,6.7-152.6,27.2
			c36.5,2.2,68.6,15,95.7,39.6c27,24.6,42.9,55.3,48.7,91.4C406,371,421.4,340.6,447.9,316.2z"/>
	</g>
</g>
</svg>
