<svg xmlns="http://www.w3.org/2000/svg" viewBox="0 0 989 774"><linearGradient id="a" gradientUnits="userSpaceOnUse" x1="469.697" y1="411.407" x2="470.408" y2="412.315" gradientTransform="matrix(987.4 0 0 -772.7 -463607.219 318715.281)"><stop offset="0" stop-color="#f29102"/><stop offset="1" stop-color="#ff008c"/></linearGradient><path d="M855.8 413c-22.9 48.3-72.2 81.7-129.2 81.7-79 0-143-64-143-143s64-143 143-143c57 0 106.3 33.4 129.2 81.7h132.4C960.4 171.6 853.8 83.1 726.5 83.1c-79 0-150.1 34.1-199.2 88.4V.9L.8 527.3v122.6h403.9v123.7h122.6V531.9c49.2 54.3 120.2 88.4 199.2 88.4 127.3 0 233.9-88.5 261.6-207.4H855.8v.1zM174.2 527.3l339.6-339.6c-35 45.4-55.9 102.3-55.9 164 0 67.1 24.6 128.5 65.3 175.6h-349z" fill="url(#a)"/></svg>