<?xml version="1.0" encoding="utf-8"?>
<!-- Generator: Adobe Illustrator 24.1.2, SVG Export Plug-In . SVG Version: 6.00 Build 0)  -->
<svg version="1.1" id="Layer_1" xmlns="http://www.w3.org/2000/svg" xmlns:xlink="http://www.w3.org/1999/xlink" x="0px" y="0px"
	 width="443px" height="101px" viewBox="0 0 443 101" style="enable-background:new 0 0 443 101;" xml:space="preserve">
<style type="text/css">
	.st0{fill-rule:evenodd;clip-rule:evenodd;}
	.st1{fill-rule:evenodd;clip-rule:evenodd;fill:#FFFFFF;}
</style>
<rect x="8" y="8.5" class="st0" width="425.2" height="85"/>
<polygon class="st1" points="130.9,35.2 135.8,35.2 151.9,66.5 147,66.5 143,58.5 123.6,58.5 119.6,66.5 114.8,66.5 "/>
<polygon class="st0" points="141.1,54.6 133.4,39.1 125.7,54.6 "/>
<path class="st1" d="M77.1,35.2h18c4.8,0,12.3,1.1,12.3,8.9c0,6.3-5.7,8.3-9.4,8.6L108,66.4h-5.2L93,52.8H81.3v13.6h-4.2V35.2z"/>
<path class="st0" d="M81.3,49.1h12.9c5.5,0,9.1-0.8,9.1-5c0-4.2-3.7-5-9.1-5H81.3V49.1z"/>
<path class="st1" d="M36.1,66.2V35.5h17.7c3.5,0,11.9,0,11.9,8c0,4.2-2.7,5.5-4.7,6.4c1.8,0.8,5.7,2.5,5.7,7.6c0,8.2-8.7,8.6-15,8.6
	H36.1z"/>
<path class="st0" d="M39.8,51.7v11.2h14.4c4.5,0,8.9-0.8,8.9-5.5c0-4.3-3.4-5.7-8.4-5.7H39.8z"/>
<path class="st0" d="M39.8,38.6v9.9h13c4.4,0,9.2-0.7,9.2-5c0-4.9-5-4.9-10.4-4.9H39.8z"/>
<polygon class="st1" points="372.3,34 388.1,66.5 379.1,66.5 376.2,60.1 358.7,60.1 355.7,66.5 346.7,66.5 362.7,34 "/>
<polygon class="st0" points="367.5,41.5 362.3,52.5 372.7,52.5 "/>
<rect x="396.1" y="35.4" class="st1" width="8.7" height="8.7"/>
<g>
	<path class="st1" d="M311.8,34l20.6,22.1V34h7.1v32.5h-7l-21.4-23v23h-7.2V34L311.8,34L311.8,34z M259.9,66.5V34h15.7
		c10.3,0,18.5,4.3,18.5,16c0,11.1-7.6,16.5-18.3,16.5H259.9L259.9,66.5z"/>
</g>
<path class="st0" d="M266.3,61h6.5c10.8,0,15-3.3,15-10.9c0-8-4.4-10.7-15-10.7h-6.5V61z"/>
<path class="st1" d="M202.4,34.5h16.1c9.9,0,17.3,5.3,17.3,16c0,13.3-10.2,16.6-18.5,16.6h-14.9V34.5z"/>
<path class="st0" d="M208.1,61.9h9.8c3.1,0,12.3-0.4,12.3-11.5c0-8.2-5.7-10.7-11.7-10.7h-10.4V61.9z"/>
<polygon class="st1" points="159.2,34.8 165.4,34.8 187.3,59 187.3,34.8 192.3,34.8 192.3,66.8 187.6,66.8 164,40.5 164,66.8 
	159.2,66.8 "/>
</svg>
