<?xml version="1.0" encoding="utf-8"?>
<!-- Generator: Adobe Illustrator 23.0.0, SVG Export Plug-In . SVG Version: 6.00 Build 0)  -->
<svg version="1.1" id="_x32_" xmlns="http://www.w3.org/2000/svg" xmlns:xlink="http://www.w3.org/1999/xlink" x="0px" y="0px"
	 viewBox="0 0 800 800" style="enable-background:new 0 0 800 800;" xml:space="preserve">
<style type="text/css">
	.st0{fill:#FFFFFF;}
</style>
<g>
	<path class="st0" d="M144.6,459.7V194.3h-77c-37.2,0-67.6,31.1-67.6,69v322.6c0,37.9,30.4,69,67.6,69h96.9v71c0,4.8,2.8,9,7.1,10.8
		c4.3,1.8,9.3,0.8,12.5-2.6l77.9-79.3h166.4c37.2,0,67.6-31.1,67.6-69v-0.1H269.2C200.5,585.7,144.6,529.2,144.6,459.7z"/>
	<path class="st0" d="M723,62.5H269.2c-42.4,0-77,35.3-77,78.4v318.8c0,43.1,34.7,78.4,77,78.4h257.3L644.2,657
		c3.7,3.8,9.4,5,14.3,2.9c4.9-2.1,8.1-6.9,8.1-12.3V538.2H723c42.4,0,77-35.3,77-78.4V140.9C800,97.8,765.3,62.5,723,62.5z
		 M576.8,437.7H306.1v-38h270.7V437.7z M686,319H306.1v-38H686L686,319L686,319z M686,200.2H306.1v-38H686L686,200.2L686,200.2z"/>
</g>
</svg>
