<?xml version="1.0" encoding="utf-8"?>
<!-- Generator: Adobe Illustrator 23.0.0, SVG Export Plug-In . SVG Version: 6.00 Build 0)  -->
<svg version="1.1" id="_x32_" xmlns="http://www.w3.org/2000/svg" xmlns:xlink="http://www.w3.org/1999/xlink" x="0px" y="0px"
	 viewBox="0 0 800 800" style="enable-background:new 0 0 800 800;" xml:space="preserve">
<style type="text/css">
	.st0{fill:#FFFFFF;}
</style>
<g>
	<path class="st0" d="M523.5,305.9l-41.9-17.5c-9.6,13.8-19.8,28-29.9,41.7l56.1,23.5v375.2l-215.7-90.3V384
		c-9.3-12.1-20-26.1-31.3-41.2v295.7L54.6,724.8V349.6l162.4-68c-10.5-15.3-19.9-29.9-27.4-42.7l-185,77.5V800l271.9-113.9
		l246.9,103.4l272-113.9V192L523.5,305.9z M745.4,642.4l-206.3,86.4V353.5l206.3-86.4V642.4z"/>
	<path class="st0" d="M351.6,397.2c0,0,98-122.5,132.4-184.2c29.9-53.8,17.9-123.8-28-169.8C427.1,14.4,389.4,0,351.6,0
		C313.8,0,276,14.4,247.2,43.2c-45.9,45.9-57.9,116-28,169.8C253.5,274.7,351.6,397.2,351.6,397.2z M351.6,57.9
		c49.5,0,89.6,40.2,89.6,89.7s-40.2,89.6-89.6,89.6c-49.5,0-89.6-40.1-89.6-89.6S302.1,57.9,351.6,57.9z"/>
</g>
</svg>
