<?xml version="1.0" encoding="utf-8"?>
<!-- Generator: Adobe Illustrator 23.0.0, SVG Export Plug-In . SVG Version: 6.00 Build 0)  -->
<svg version="1.1" id="Layer_1" xmlns="http://www.w3.org/2000/svg" xmlns:xlink="http://www.w3.org/1999/xlink" x="0px" y="0px"
	 viewBox="0 0 800 800" style="enable-background:new 0 0 800 800;" xml:space="preserve">
<style type="text/css">
	.st0{fill:#FFFFFF;}
</style>
<g>
	<g>
		<path class="st0" d="M799.4,320.4c0-19.8-16.2-35.9-36-35.9c0,0,0,0,0,0l-727.5,1c-19.8,0-35.9,16.2-35.9,36l0.6,411.1
			c0,19.8,16.2,35.9,36,35.9c0,0,0,0,0,0l727.5-1c9.6,0,18.6-3.8,25.4-10.6c6.8-6.8,10.5-15.8,10.5-25.4L799.4,320.4z M724,320.5
			L400,545.7L75.4,321.4L724,320.5z M535.1,581.8l193.2,149.8l-657.1,0.9l194.4-150.7c7.8-6.1,9.3-17.4,3.2-25.2
			c-6.1-7.8-17.4-9.3-25.2-3.2l-207,160.6L36,337.8l353.9,244.5c3.1,2.1,6.6,3.2,10.2,3.2c3.6,0,7.2-1.1,10.3-3.2l353.2-245.5
			l0.5,377.1L557.1,553.4c-7.8-6.1-19.1-4.7-25.2,3.2C525.8,564.4,527.2,575.7,535.1,581.8z"/>
	</g>
</g>
<g>
	<g>
		<path class="st0" d="M485.2,97.4L419.8,39C408.5,29,391.5,29,380.2,39l-65.4,58.4c-7.4,6.6-8,18-1.4,25.4c6.6,7.4,18,8,25.4,1.4
			L382,85.6v138.6c0,9.9,8,18,18,18s18-8,18-18V85.6l43.2,38.6c3.4,3.1,7.7,4.6,12,4.6c4.9,0,9.9-2,13.4-6
			C493.2,115.4,492.6,104.1,485.2,97.4z"/>
	</g>
</g>
</svg>
