<?xml version="1.0" encoding="utf-8"?>
<!-- Generator: Adobe Illustrator 23.0.0, SVG Export Plug-In . SVG Version: 6.00 Build 0)  -->
<svg version="1.1" id="Layer_1" xmlns="http://www.w3.org/2000/svg" xmlns:xlink="http://www.w3.org/1999/xlink" x="0px" y="0px"
	 viewBox="0 0 800 456" style="enable-background:new 0 0 800 456;" xml:space="preserve">
<style type="text/css">
	.st0{fill:#CCCCCC;}
</style>
<path class="st0" d="M773.6,223.4c-0.1-0.6-0.2-1.2-0.3-1.8c-0.1-0.5-0.3-1.1-0.4-1.6c-0.1-0.5-0.2-1-0.4-1.5
	c-0.2-0.5-0.4-1-0.6-1.5c-0.2-0.5-0.4-1-0.6-1.5c-0.2-0.5-0.4-0.9-0.7-1.4c-0.2-0.5-0.5-1-0.8-1.5c-0.2-0.5-0.5-0.9-0.8-1.3
	c-0.3-0.5-0.6-1-0.9-1.4c-0.3-0.5-0.7-1-1.1-1.4c-0.3-0.4-0.6-0.8-0.9-1.1c-0.7-0.8-1.5-1.6-2.3-2.4L594,41.1
	c-13.3-12.8-34.8-12.8-48.1,0c-13.3,12.8-13.3,33.5,0,46.3l112,107.9H60c-18.8,0-34,14.7-34,32.8s15.2,32.8,34,32.8h597.9L546,368.6
	c-13.3,12.8-13.3,33.5,0,46.3c6.6,6.4,15.3,9.6,24,9.6c8.7,0,17.4-3.2,24-9.6l170-163.8c0.8-0.8,1.5-1.6,2.3-2.4
	c0.3-0.4,0.6-0.8,0.9-1.1c0.4-0.5,0.7-0.9,1.1-1.4c0.3-0.5,0.6-1,0.9-1.4c0.3-0.4,0.6-0.9,0.8-1.3c0.3-0.5,0.5-1,0.8-1.5
	c0.2-0.5,0.5-0.9,0.7-1.4c0.2-0.5,0.4-1,0.6-1.5c0.2-0.5,0.4-1,0.6-1.5c0.2-0.5,0.3-1,0.4-1.5c0.1-0.5,0.3-1,0.4-1.6
	c0.1-0.6,0.2-1.2,0.3-1.8c0.1-0.5,0.2-0.9,0.2-1.4c0.2-2.2,0.2-4.3,0-6.5C773.8,224.3,773.7,223.9,773.6,223.4z"/>
</svg>
